<?xml version="1.0" encoding="UTF-8"?>
<svg id="Lager_1" data-name="Lager 1" xmlns="http://www.w3.org/2000/svg" viewBox="0 0 240.33 240.33">
  <path d="M197.14,102.59l-.04,.11s.11-.04,.16-.06l-.12-.05Zm-112.84,6.8l-1.63,.73c.66,.12,1.33,.24,2,.37l.49,.08-.86-1.18Z" style="fill: #12f1ab; stroke: #15b884; stroke-miterlimit: 10;"/>
  <path d="M187.01,162.17l-.09,.04s.08,.04,.13,.06l-.04-.1Z" style="fill: #12f1ab; stroke: #15b884; stroke-miterlimit: 10;"/>
  <g>
    <path d="M137.62,197.09c.02,.05,.04,.11,.06,.17l.05-.13-.11-.04Z" style="fill: #12f1ab; stroke: #15b884; stroke-miterlimit: 10;"/>
    <path d="M239.04,138.84c-1.71-7.7-5.59-14.31-11.64-19.85-.21-.2-.43-.39-.65-.57,4.39-3.95,7.65-8.44,9.79-13.47,4.19-9.85,3.32-21.42-2.63-34.71-4.34-9.71-9.83-16.69-16.48-20.93-6.65-4.23-14.07-6.17-22.26-5.8-.29,0-.58,.03-.87,.05,.31-5.9-.56-11.38-2.6-16.45-4-9.92-12.8-17.48-26.4-22.68-9.94-3.8-18.76-4.85-26.45-3.14-7.7,1.7-14.31,5.58-19.85,11.63-.19,.21-.38,.42-.58,.64-3.94-4.38-8.43-7.64-13.46-9.78C95.11-.41,83.54,.47,70.25,6.41c-9.72,4.34-16.69,9.84-20.93,16.48-4.24,6.65-6.17,14.07-5.8,22.26,.01,.29,.03,.58,.05,.87-5.89-.31-11.38,.55-16.45,2.6-9.92,4-17.49,12.8-22.68,26.4C.64,84.96-.41,93.78,1.29,101.47c1.71,7.7,5.59,14.32,11.64,19.85,.21,.19,.42,.38,.64,.58-4.38,3.95-7.64,8.44-9.78,13.47-4.19,9.84-3.32,21.41,2.63,34.7,4.34,9.72,9.83,16.69,16.48,20.93,6.65,4.24,14.07,6.17,22.26,5.81,.29-.01,.58-.03,.87-.05-.31,5.89,.56,11.38,2.6,16.45,4,9.92,12.8,17.48,26.4,22.68,9.94,3.8,18.76,4.84,26.45,3.14,7.7-1.71,14.31-5.58,19.85-11.64,.2-.21,.39-.43,.57-.65,3.95,4.39,8.44,7.66,13.47,9.8,9.85,4.18,21.42,3.31,34.71-2.63,9.72-4.34,16.69-9.84,20.93-16.49,4.24-6.65,6.17-14.07,5.8-22.26-.01-.29-.03-.57-.05-.86,5.9,.31,11.38-.56,16.45-2.6,9.93-4.01,17.49-12.81,22.69-26.41,3.79-9.94,4.84-18.75,3.14-26.45ZM72.91,36.04c1.27-3.33,3.95-5.91,8.04-7.74,4.35-1.94,8.23-1.83,11.65,.32,3.41,2.16,6.41,6.11,8.98,11.86,.38,.86,.74,1.72,1.07,2.58,.02,.05,.04,.11,.06,.16,1.58,4.18,2.51,8.32,2.77,12.42,.16,2.58,.18,5.17,.06,7.78-.04,1.13-.12,2.27-.21,3.4-.12,1.31-.27,2.62-.46,3.93-.2,1.38-.4,2.77-.6,4.19-.56,3.8-1.16,7.75-1.79,11.83l-.06,.42-.23,1.42-.28-.39c-.38-.56-.76-1.11-1.14-1.66-1.81-2.62-3.62-5.17-5.42-7.64-.51-.71-1.03-1.42-1.55-2.12-1.02-1.38-2.04-2.74-3.05-4.08-.79-1.04-1.6-2.05-2.43-3.04-3.05-3.66-6.38-6.99-10-10.03-.94-.79-1.92-1.55-2.94-2.28-1.43-3.53-2.47-6.94-3.14-10.22-.83-4.08-.6-7.78,.67-11.11ZM27.49,82.93c1.7-4.44,4.52-7.11,8.46-8,3.93-.89,8.85-.22,14.73,2.03,.89,.34,1.75,.7,2.59,1.08,.05,.02,.1,.04,.15,.07,4.08,1.83,7.66,4.1,10.74,6.81,1.94,1.72,3.8,3.53,5.55,5.46,.77,.83,1.52,1.68,2.24,2.56,.85,1.01,1.67,2.04,2.46,3.1,.84,1.11,1.68,2.24,2.54,3.39,2.3,3.08,4.67,6.29,7.1,9.62l.25,.34,.86,1.18-.49-.08c-.67-.13-1.34-.25-2-.37-3.13-.58-6.2-1.1-9.21-1.58-.88-.14-1.74-.27-2.6-.4-1.7-.26-3.38-.5-5.04-.73-1.29-.17-2.58-.32-3.87-.43-4.74-.42-9.46-.43-14.16-.02-1.23,.11-2.46,.26-3.7,.47-3.51-1.49-6.65-3.16-9.44-5.01-3.46-2.3-5.92-5.07-7.38-8.33-1.45-3.25-1.38-6.97,.22-11.16Zm42.19,69.08c-3.65,3.04-6.99,6.38-10.02,9.99-.79,.94-1.55,1.92-2.28,2.94-3.54,1.43-6.94,2.48-10.22,3.14-4.08,.83-7.78,.6-11.11-.67-3.33-1.27-5.91-3.95-7.74-8.04-1.94-4.35-1.83-8.23,.32-11.64,2.15-3.42,6.11-6.41,11.86-8.98,.86-.39,1.72-.75,2.58-1.07,.05-.02,.11-.05,.16-.07,4.18-1.58,8.32-2.51,12.42-2.77,2.58-.16,5.18-.18,7.78-.06,1.13,.04,2.26,.12,3.4,.21,1.3,.12,2.62,.27,3.93,.46,1.37,.19,2.77,.4,4.18,.6,3.81,.56,7.75,1.16,11.84,1.79l.41,.06,1.45,.23-.41,.29c-.56,.39-1.12,.77-1.68,1.15-2.61,1.81-5.16,3.61-7.62,5.4-.72,.52-1.42,1.04-2.12,1.56-1.39,1.01-2.75,2.03-4.09,3.05-1.04,.79-2.05,1.59-3.04,2.43Zm40.81,3.64c-.12,.67-.25,1.33-.37,1.99-.57,3.13-1.09,6.21-1.57,9.22-.14,.87-.27,1.74-.4,2.6-.26,1.7-.5,3.38-.73,5.04-.18,1.3-.33,2.59-.44,3.88-.42,4.74-.42,9.46,0,14.15,.11,1.22,.26,2.45,.47,3.68-1.49,3.51-3.16,6.67-5.01,9.46-2.3,3.47-5.08,5.93-8.33,7.38-3.25,1.46-6.97,1.38-11.16-.22-4.44-1.7-7.11-4.51-8.01-8.45-.89-3.94-.21-8.85,2.04-14.74,.34-.88,.69-1.74,1.07-2.58,.02-.05,.04-.1,.07-.15,1.83-4.08,4.1-7.66,6.82-10.75,1.71-1.95,3.53-3.8,5.46-5.56,.83-.77,1.69-1.51,2.56-2.24,1.01-.84,2.04-1.66,3.09-2.45,1.11-.83,2.24-1.68,3.39-2.53,3.08-2.3,6.3-4.67,9.63-7.11l.34-.25,1.17-.85-.08,.48Zm60.16-67.34c3.65-3.05,6.99-6.38,10.02-10,.79-.94,1.55-1.92,2.28-2.94,3.54-1.43,6.94-2.47,10.22-3.14,4.08-.82,7.78-.6,11.11,.67,3.33,1.28,5.91,3.95,7.74,8.05,1.94,4.34,1.83,8.22-.32,11.64-2.15,3.41-6.11,6.41-11.86,8.98-.86,.38-1.72,.74-2.58,1.07-.05,.02-.11,.04-.16,.06-4.18,1.58-8.32,2.51-12.42,2.77-2.58,.17-5.18,.19-7.78,.07-1.13-.04-2.26-.12-3.4-.22-1.31-.12-2.62-.27-3.93-.46-1.37-.19-2.77-.4-4.18-.6-3.81-.56-7.75-1.16-11.84-1.79l-.41-.06-1.43-.23,.39-.28c.56-.39,1.12-.77,1.68-1.15,2.61-1.81,5.16-3.61,7.62-5.41,.72-.51,1.42-1.03,2.12-1.55,1.39-1.01,2.75-2.03,4.09-3.05,1.04-.79,2.05-1.6,3.04-2.43Zm-39.72-4.02l-1.17,.85,.08-.47c.12-.67,.25-1.33,.37-1.99,.57-3.13,1.09-6.21,1.57-9.23,.14-.87,.27-1.74,.4-2.59,.26-1.71,.5-3.39,.73-5.05,.18-1.29,.33-2.58,.43-3.87,.43-4.74,.43-9.46,.02-14.16-.11-1.22-.26-2.44-.47-3.68,1.49-3.51,3.16-6.67,5.01-9.45,2.3-3.47,5.08-5.93,8.33-7.39,3.25-1.45,6.97-1.38,11.16,.22,4.44,1.7,7.11,4.52,8.01,8.46,.89,3.94,.21,8.85-2.04,14.73-.34,.89-.7,1.75-1.08,2.59-.01,.05-.04,.1-.07,.15-1.82,4.08-4.09,7.66-6.81,10.74-1.71,1.95-3.53,3.8-5.46,5.57-.83,.76-1.69,1.51-2.56,2.24-1.01,.84-2.04,1.66-3.09,2.45-1.11,.83-2.24,1.68-3.39,2.53-3.08,2.3-6.3,4.67-9.63,7.1l-.34,.25Zm36.49,119.98c-1.27,3.33-3.95,5.91-8.04,7.74-4.35,1.94-8.23,1.84-11.65-.32-3.41-2.15-6.41-6.1-8.98-11.86-.38-.86-.74-1.72-1.07-2.57-.02-.06-.04-.12-.06-.17-1.59-4.18-2.51-8.32-2.77-12.42-.16-2.58-.18-5.18-.06-7.78,.04-1.13,.12-2.26,.21-3.4,.12-1.3,.27-2.62,.46-3.93,.2-1.37,.4-2.77,.6-4.18,.56-3.8,1.16-7.75,1.79-11.83l.07-.42,.22-1.43,.28,.39c.38,.56,.77,1.12,1.15,1.67,1.81,2.62,3.61,5.17,5.41,7.64,.52,.72,1.03,1.42,1.55,2.12,1.02,1.38,2.04,2.74,3.05,4.08,.79,1.04,1.6,2.05,2.43,3.04,3.05,3.65,6.39,6.99,10,10.03,.94,.79,1.92,1.55,2.94,2.28,1.43,3.53,2.47,6.93,3.14,10.21,.83,4.08,.6,7.79-.67,11.11Zm45.42-46.89c-1.7,4.44-4.52,7.11-8.46,8.01-3.93,.89-8.85,.21-14.73-2.04-.89-.34-1.76-.7-2.6-1.08-.05-.02-.09-.04-.13-.06-4.08-1.83-7.67-4.1-10.75-6.82-1.94-1.71-3.8-3.53-5.55-5.45-.77-.83-1.52-1.68-2.25-2.56-.84-1.01-1.66-2.04-2.45-3.1-.84-1.11-1.68-2.24-2.54-3.39-2.3-3.08-4.67-6.29-7.1-9.63l-.25-.34-.85-1.17,.48,.08c.67,.12,1.33,.25,1.99,.37,3.13,.57,6.2,1.09,9.22,1.57,.87,.14,1.74,.27,2.6,.4,1.7,.26,3.38,.5,5.04,.73,1.29,.18,2.58,.33,3.87,.44,4.74,.42,9.46,.43,14.16,.01,1.22-.11,2.45-.26,3.68-.47,3.51,1.49,6.67,3.16,9.46,5.01,3.46,2.3,5.93,5.08,7.38,8.33,1.45,3.26,1.38,6.97-.22,11.16Z" style="fill: #12f1ab; stroke: #15b884; stroke-miterlimit: 10;"/>
  </g>
  <path d="M155.66,129.83l-.48-.08,.85,1.17,1.62-.72c-.66-.12-1.32-.25-1.99-.37Zm-77.55,57.08s-.05,.1-.07,.15l.12-.05-.05-.1Z" style="fill: #12f1ab; stroke: #15b884; stroke-miterlimit: 10;"/>
  <path d="M138.42,152.09l-.28-.39-.22,1.43,1.65,.63c-.38-.55-.77-1.11-1.15-1.67Zm17.24-22.26l-.48-.08,.85,1.17,1.62-.72c-.66-.12-1.32-.25-1.99-.37Zm-112.59,7.85l.12,.04,.04-.11s-.11,.05-.16,.07Z" style="fill: #12f1ab; stroke: #15b884; stroke-miterlimit: 10;"/>
  <path d="M138.42,152.09l-.28-.39-.22,1.43,1.65,.63c-.38-.55-.77-1.11-1.15-1.67Zm-29.02,3.93l.72,1.62c.12-.66,.25-1.32,.37-1.99l.08-.48-1.17,.85ZM53.27,78.04l.05,.11,.1-.04s-.1-.05-.15-.07Z" style="fill: #12f1ab; stroke: #15b884; stroke-miterlimit: 10;"/>
  <path d="M102.65,43.06l-.05,.12,.11,.04s-.04-.11-.06-.16Zm-15.46,94.84l-.64,1.67c.56-.38,1.12-.76,1.68-1.15l.41-.29-1.45-.23Zm22.21,18.12l.72,1.62c.12-.66,.25-1.32,.37-1.99l.08-.48-1.17,.85Z" style="fill: #12f1ab; stroke: #15b884; stroke-miterlimit: 10;"/>
  <path d="M162.17,53.31l.04,.1s.06-.1,.07-.15l-.11,.05Zm-74.98,84.59l-.64,1.67c.56-.38,1.12-.76,1.68-1.15l.41-.29-1.45-.23Zm-2.89-28.51l-1.63,.73c.66,.12,1.33,.24,2,.37l.49,.08-.86-1.18Z" style="fill: #12f1ab; stroke: #15b884; stroke-miterlimit: 10;"/>
</svg>